<?xml version="1.0" encoding="UTF-8" ?>
<!DOCTYPE svg PUBLIC "-//W3C//DTD SVG 1.1//EN" "http://www.w3.org/Graphics/SVG/1.1/DTD/svg11.dtd">
<svg width="559pt" height="554pt" viewBox="0 0 559 554" version="1.1" xmlns="http://www.w3.org/2000/svg">
<path fill="#fdfdfd" d=" M 0.00 0.00 L 559.00 0.00 L 559.00 554.00 L 0.00 554.00 L 0.00 0.00 Z" />
<path fill="#0b0b0b" d=" M 378.40 18.25 C 388.18 13.26 398.86 9.02 410.01 9.35 C 417.78 10.83 425.49 13.37 432.17 17.70 C 439.89 21.28 446.88 26.19 454.41 30.13 C 456.78 31.13 459.51 31.00 461.99 30.49 C 465.54 28.96 468.88 26.39 472.94 26.53 C 487.36 25.19 500.61 36.02 505.25 49.19 C 506.36 53.83 505.16 58.63 505.86 63.30 C 508.25 67.55 512.89 69.58 516.61 72.42 C 526.40 80.58 536.31 88.66 545.01 98.02 C 548.27 102.11 554.59 102.91 556.40 108.30 C 557.95 114.09 553.61 119.35 553.61 125.09 C 553.61 128.80 553.49 132.51 552.63 136.13 C 551.88 145.00 550.91 153.82 550.17 162.68 C 547.06 179.66 544.23 196.70 539.79 213.40 C 538.67 218.21 538.28 223.21 536.55 227.87 C 532.98 237.37 531.42 247.46 528.77 257.22 C 526.45 264.18 525.13 271.47 521.98 278.14 C 517.96 288.88 515.54 300.43 509.25 310.17 C 497.67 326.67 486.60 343.51 475.38 360.27 C 472.20 365.92 468.74 371.51 464.05 376.05 C 456.52 384.22 449.20 392.58 441.65 400.72 C 437.24 406.60 431.65 411.46 427.49 417.52 C 423.46 422.76 418.70 427.38 414.19 432.19 C 406.17 439.17 399.43 447.54 390.98 454.04 C 384.06 460.07 377.69 466.74 370.36 472.30 C 363.55 477.43 357.22 483.13 350.76 488.68 C 343.49 495.20 334.81 499.95 327.88 506.86 C 316.73 515.46 304.34 522.30 292.16 529.30 C 282.68 535.66 272.96 541.84 262.28 546.01 C 257.62 547.75 251.87 548.58 247.71 545.22 C 243.96 542.17 239.63 540.01 235.57 537.45 C 227.54 531.03 218.64 525.79 210.70 519.26 C 196.00 508.13 180.96 497.19 168.61 483.37 C 165.10 480.03 161.04 475.15 155.59 476.60 C 151.09 479.91 148.27 485.52 142.71 487.29 C 137.85 488.19 132.64 487.61 128.41 484.93 C 120.70 481.10 114.96 474.33 110.74 466.99 C 108.77 463.10 107.40 458.25 109.99 454.29 C 112.17 448.94 118.05 445.81 119.39 440.13 C 118.10 436.05 114.44 433.42 111.39 430.69 C 102.96 424.49 96.69 416.00 89.03 408.96 C 82.17 402.50 75.68 395.66 70.05 388.09 C 65.92 382.11 62.60 375.58 57.96 369.95 C 53.01 364.07 50.42 356.72 47.20 349.85 C 44.00 340.53 38.56 332.20 35.00 323.03 C 31.39 313.48 27.51 304.04 23.39 294.71 C 20.95 287.89 18.44 281.09 16.17 274.22 C 12.67 259.84 7.29 245.99 3.85 231.59 C 3.11 227.10 3.68 222.51 3.36 217.98 C 3.36 214.02 2.77 209.79 4.53 206.10 C 8.08 197.48 14.96 190.94 20.70 183.80 C 26.66 176.40 34.63 170.88 40.25 163.19 C 41.60 161.57 42.18 158.94 40.77 157.19 C 37.24 152.53 31.94 149.09 29.91 143.40 C 29.16 140.70 28.46 137.82 29.50 135.09 C 32.31 125.84 38.59 118.10 45.37 111.42 C 48.53 108.10 52.97 106.59 57.35 105.71 C 61.21 105.05 64.80 107.17 67.89 109.22 C 71.86 111.92 73.90 116.50 77.53 119.55 C 78.67 120.84 80.47 120.46 81.97 120.26 C 86.96 118.66 90.15 114.25 93.77 110.76 C 98.36 106.38 102.20 101.20 107.43 97.53 C 111.62 94.28 116.90 92.42 120.06 87.93 C 122.97 83.77 127.53 80.20 132.89 80.69 C 145.13 82.53 155.86 89.38 167.71 92.63 C 181.42 98.32 196.12 101.69 209.05 109.17 C 214.39 112.43 219.95 115.35 224.90 119.20 C 231.25 123.33 235.89 129.45 241.78 134.16 C 246.45 137.74 250.84 141.76 256.05 144.58 C 259.94 143.03 260.77 138.58 262.39 135.18 C 264.21 131.24 265.58 127.11 266.66 122.91 C 269.92 111.90 277.33 102.93 283.80 93.67 C 286.96 88.97 291.13 85.07 294.50 80.52 C 298.33 75.41 303.18 71.22 307.69 66.73 C 317.72 58.44 327.66 50.01 338.11 42.24 C 351.31 33.88 364.15 24.80 378.40 18.25 Z" />
<path fill="#fdfdfd" d=" M 407.19 25.79 C 409.28 23.78 412.52 23.66 415.05 24.89 C 425.58 29.62 435.61 35.36 446.31 39.71 C 449.63 40.91 452.29 44.09 451.57 47.76 C 450.07 52.06 447.58 55.98 446.48 60.42 C 445.97 65.13 446.11 70.10 448.48 74.34 C 450.41 79.73 455.37 82.90 459.54 86.42 C 463.43 89.36 467.59 92.23 472.43 93.29 C 477.24 94.45 482.35 93.03 486.46 90.43 C 491.00 86.99 491.64 80.42 496.37 77.14 C 499.02 76.13 501.78 77.51 503.74 79.27 C 512.32 86.37 521.05 93.30 529.58 100.47 C 531.39 101.87 533.00 103.71 533.42 106.04 C 534.00 108.33 531.18 108.93 529.64 109.67 C 523.37 111.00 517.22 112.94 510.86 113.81 C 506.57 114.25 502.38 115.26 498.18 116.17 C 490.70 118.36 482.96 119.44 475.47 121.58 C 470.13 123.15 464.46 122.56 459.07 123.83 C 452.14 125.46 445.01 126.07 438.20 128.22 C 432.87 129.93 426.79 126.20 425.80 120.73 C 424.92 114.90 425.91 108.81 423.96 103.15 C 420.86 95.25 421.10 86.61 418.80 78.51 C 416.45 68.21 415.37 57.61 412.30 47.47 C 409.92 40.40 409.25 32.94 407.19 25.79 Z" />
<path fill="#fdfdfd" d=" M 379.35 35.39 C 386.02 32.37 391.82 27.27 399.26 26.13 C 399.69 30.39 399.52 34.66 399.62 38.92 C 400.88 46.93 400.05 55.12 401.76 63.08 C 402.50 68.11 404.41 72.93 404.55 78.05 C 404.61 86.00 407.92 93.40 409.58 101.07 C 410.44 107.69 412.09 114.39 416.05 119.88 C 417.83 122.90 421.26 126.45 419.12 130.12 C 416.37 134.19 411.20 133.47 406.97 133.81 C 397.02 136.18 386.69 135.28 376.62 136.78 C 370.37 138.51 363.76 136.87 357.52 138.68 C 350.31 140.75 342.78 141.25 335.58 143.35 C 329.45 143.69 323.34 144.45 317.42 146.13 C 311.30 146.79 305.26 147.97 299.29 149.41 C 289.58 150.51 280.07 152.96 270.28 153.33 C 267.55 153.18 266.32 149.83 267.66 147.64 C 270.74 142.49 272.25 136.58 275.55 131.55 C 277.63 128.31 279.29 124.78 281.83 121.85 C 287.10 115.30 289.98 107.02 296.23 101.24 C 299.80 98.00 301.67 93.45 305.04 90.06 C 307.36 87.33 310.64 85.67 312.89 82.86 C 315.91 79.21 319.87 76.53 323.26 73.26 C 330.17 67.18 336.84 60.75 344.49 55.58 C 351.94 51.45 358.61 46.02 366.26 42.22 C 370.56 39.83 375.00 37.70 379.35 35.39 Z" />
<path fill="#fdfdfd" d=" M 462.45 50.39 C 464.40 49.64 466.72 48.89 468.71 49.97 C 474.03 52.15 477.28 57.89 483.20 58.85 C 486.43 59.61 490.89 61.81 489.99 65.82 C 488.72 70.29 485.99 74.37 482.48 77.39 C 478.06 80.82 472.17 79.23 467.36 77.64 C 462.41 75.01 457.71 70.71 456.65 64.98 C 456.02 61.76 457.89 58.86 459.01 55.99 C 459.99 54.05 460.50 51.62 462.45 50.39 Z" />
<path fill="#fdfdfd" d=" M 134.97 100.09 C 135.14 97.59 138.35 97.04 140.32 97.63 C 144.22 98.62 147.91 100.31 151.82 101.30 C 164.11 106.02 177.13 108.97 188.79 115.25 C 197.74 119.34 206.36 124.08 214.69 129.29 C 217.70 131.80 221.52 133.01 224.64 135.36 C 231.79 143.26 242.77 146.98 248.74 156.11 C 247.61 158.07 246.12 160.11 243.59 159.94 C 235.74 160.32 227.93 161.35 220.09 162.00 C 215.34 162.56 210.79 164.35 205.97 164.40 C 199.41 164.19 193.16 166.60 186.66 167.13 C 182.02 167.31 177.57 168.76 172.97 169.21 C 166.72 169.71 160.87 172.22 154.75 173.38 C 149.24 173.89 143.76 174.94 138.57 176.88 C 136.09 177.94 133.33 177.89 130.71 177.48 C 128.10 174.67 129.43 170.22 130.18 166.86 C 132.39 160.45 131.04 153.58 131.93 146.99 C 132.97 141.51 131.86 135.83 133.36 130.42 C 133.37 125.90 134.50 121.53 135.22 117.10 C 134.29 111.48 134.54 105.76 134.97 100.09 Z" />
<path fill="#fdfdfd" d=" M 114.59 105.60 C 116.99 103.60 119.70 102.02 122.23 100.18 C 123.02 101.63 123.82 103.15 123.65 104.87 C 123.82 114.25 123.25 123.62 123.38 133.00 C 124.15 143.40 120.78 153.44 118.71 163.53 C 118.20 168.95 118.75 174.50 117.18 179.80 C 115.28 182.87 111.83 184.43 108.33 184.76 C 99.37 186.07 91.01 189.78 82.07 191.17 C 73.41 193.20 64.78 195.37 55.97 196.70 C 49.43 198.78 42.49 198.81 35.86 200.47 C 32.84 200.96 29.77 200.59 26.74 200.30 C 26.25 199.52 25.77 198.74 25.28 197.96 C 26.52 195.15 28.72 192.98 30.89 190.89 C 35.42 186.69 38.27 181.03 42.84 176.86 C 45.17 174.87 46.92 172.22 49.47 170.49 C 54.78 169.29 59.23 172.96 63.61 175.28 C 70.32 177.24 76.81 173.44 82.73 170.74 C 85.71 168.46 89.11 166.48 91.15 163.23 C 95.21 157.10 100.07 150.76 99.67 142.97 C 100.18 138.15 95.93 135.06 93.65 131.39 C 93.19 128.92 93.04 125.92 95.23 124.21 C 98.78 121.09 102.20 117.81 105.91 114.90 C 109.26 112.23 111.46 108.48 114.59 105.60 Z" />
<path fill="#fdfdfd" d=" M 531.43 122.49 C 534.49 121.94 539.36 120.51 540.88 124.29 C 542.09 130.49 539.43 136.50 538.52 142.55 C 537.17 152.28 535.30 161.92 533.60 171.59 C 531.16 179.07 530.33 186.91 528.29 194.49 C 527.68 201.20 526.57 207.93 524.23 214.28 C 522.42 220.90 520.78 227.56 519.04 234.20 C 518.19 241.35 515.42 248.02 514.00 255.04 C 512.94 259.31 510.65 263.16 509.58 267.43 C 507.75 274.82 505.00 281.95 503.18 289.34 C 502.47 292.40 500.67 296.15 496.97 295.99 C 490.94 294.82 485.52 291.70 480.19 288.79 C 463.38 280.76 446.27 273.40 429.33 265.68 C 421.72 261.01 412.99 258.51 405.70 253.29 C 400.23 249.58 393.97 247.22 388.61 243.36 C 384.67 240.62 379.27 239.67 376.55 235.44 C 375.48 232.14 377.72 229.16 380.03 227.08 C 384.58 221.92 388.62 216.33 393.22 211.21 C 397.45 207.35 399.95 202.07 404.12 198.16 C 407.55 190.90 412.02 184.15 416.93 177.80 C 420.79 171.14 423.45 163.85 424.95 156.30 C 426.32 152.09 426.17 146.90 429.83 143.83 C 434.17 140.66 439.71 140.05 444.93 139.88 C 450.40 139.70 455.51 137.36 460.99 137.30 C 467.41 136.79 473.55 134.53 480.00 134.35 C 486.08 133.43 491.83 130.90 497.95 130.09 C 503.80 129.53 509.37 127.49 515.07 126.13 C 520.47 124.66 526.12 124.31 531.43 122.49 Z" />
<path fill="#fdfdfd" d=" M 69.53 127.56 C 73.81 126.13 76.96 129.68 79.25 132.74 C 81.32 135.63 84.34 137.65 86.46 140.48 C 87.72 143.82 88.48 147.65 87.10 151.09 C 85.87 154.00 83.98 156.56 82.12 159.09 C 78.76 163.74 72.64 166.01 67.02 165.42 C 61.10 164.42 57.90 158.94 53.80 155.19 C 52.34 153.49 49.78 151.83 50.34 149.25 C 50.67 145.58 54.33 143.95 56.60 141.56 C 59.87 137.82 62.86 133.84 66.15 130.11 C 67.11 129.07 68.11 127.94 69.53 127.56 Z" />
<path fill="#fdfdfd" d=" M 400.32 146.26 C 405.71 145.65 411.31 143.94 416.68 145.41 C 418.02 151.40 413.43 156.00 410.91 160.91 C 407.72 167.58 404.10 174.04 400.04 180.22 C 397.51 185.46 393.13 189.42 390.63 194.69 C 385.79 200.22 381.71 206.35 376.91 211.92 C 371.16 217.86 366.15 224.46 360.60 230.59 C 346.61 244.62 332.56 258.63 317.17 271.14 C 314.35 273.69 311.74 276.51 308.65 278.74 C 305.32 281.02 302.92 284.38 299.57 286.63 C 290.41 293.04 281.24 299.48 272.53 306.51 C 266.84 312.05 259.27 315.07 253.41 320.39 C 250.88 322.43 248.54 324.68 246.11 326.83 C 245.01 326.23 243.93 325.61 242.86 324.96 C 241.22 320.85 242.73 316.41 243.33 312.24 C 245.16 301.51 248.96 291.00 248.52 279.98 C 248.14 275.02 249.12 270.12 250.71 265.45 C 253.50 257.99 255.17 249.99 254.77 242.01 C 254.78 234.63 256.95 227.54 257.38 220.22 C 261.10 206.08 258.97 191.33 260.28 176.93 C 260.32 172.85 260.36 167.75 264.34 165.39 C 269.02 161.79 274.71 165.55 279.89 164.19 C 285.85 162.67 292.04 162.75 297.95 161.06 C 303.54 159.54 309.37 161.13 315.01 159.99 C 319.29 159.14 323.71 159.68 327.99 158.74 C 333.72 157.64 339.61 157.63 345.28 156.14 C 351.30 154.59 357.55 154.36 363.58 152.82 C 369.74 151.83 376.13 152.08 382.14 150.19 C 388.12 148.49 394.43 148.37 400.32 146.26 Z" />
<path fill="#fdfdfd" d=" M 242.38 170.20 C 244.59 169.60 247.38 168.78 249.06 170.92 C 250.95 174.31 248.94 178.08 248.31 181.52 C 246.54 190.39 246.29 199.50 244.20 208.32 C 243.34 216.84 242.63 225.37 241.71 233.88 C 239.16 246.67 238.21 259.68 236.30 272.56 C 233.87 283.43 233.84 294.65 231.36 305.51 C 230.51 310.13 231.12 314.89 230.37 319.50 C 229.28 321.40 227.21 322.88 225.05 323.28 C 222.97 322.37 221.61 320.48 219.98 318.99 C 216.18 315.14 211.63 312.11 207.86 308.23 C 204.25 304.13 201.14 299.61 197.41 295.61 C 191.66 290.24 188.11 283.02 182.53 277.49 C 178.30 271.76 172.65 267.34 168.20 261.80 C 155.19 242.26 145.57 220.71 132.86 200.97 C 130.77 198.15 129.64 194.60 130.77 191.14 C 133.32 187.38 138.16 188.33 142.05 188.32 C 147.82 188.73 153.38 186.78 158.97 185.67 C 161.63 185.44 164.36 185.55 166.91 184.58 C 177.59 181.11 188.85 179.72 200.03 179.17 C 205.00 178.17 209.98 177.23 215.03 176.72 C 221.13 176.30 226.69 173.40 232.72 172.56 C 236.02 172.16 239.21 171.19 242.38 170.20 Z" />
<path fill="#fdfdfd" d=" M 104.50 198.35 C 108.06 197.08 111.29 194.72 115.15 194.44 C 117.20 194.38 119.77 193.90 121.07 195.92 C 125.80 201.94 124.46 210.32 128.22 216.84 C 137.45 234.88 145.07 254.09 158.10 269.86 C 160.67 273.12 165.24 276.33 163.88 281.06 C 163.92 285.35 159.56 287.28 156.88 289.86 C 145.60 298.11 135.54 307.82 124.88 316.81 C 120.81 320.07 116.63 323.23 113.02 327.02 C 106.23 333.04 98.05 337.26 91.26 343.29 C 87.24 346.99 82.38 349.61 78.51 353.47 C 75.26 356.37 70.98 359.81 66.42 357.68 C 62.29 348.42 58.63 338.97 54.45 329.74 C 48.83 318.91 44.70 307.38 41.42 295.66 C 36.49 284.48 31.28 273.33 28.51 261.36 C 23.51 248.10 21.13 234.02 16.19 220.74 C 15.26 217.49 15.55 213.20 19.18 211.79 C 24.14 210.65 29.31 212.58 34.24 211.09 C 39.94 209.39 45.94 209.84 51.70 208.56 C 57.52 208.65 63.22 207.43 69.03 207.46 C 76.95 207.06 84.39 203.93 92.08 202.23 C 96.33 201.33 100.41 199.81 104.50 198.35 Z" />
<path fill="#fdfdfd" d=" M 363.31 246.03 C 365.45 244.82 368.09 245.66 370.00 246.96 C 374.24 249.74 378.18 252.96 382.61 255.43 C 395.46 262.54 407.97 270.21 420.93 277.13 C 429.47 280.14 437.19 284.95 445.48 288.55 C 457.40 293.63 469.18 299.45 481.95 302.12 C 485.53 303.31 490.06 304.58 491.60 308.43 C 492.60 310.24 491.25 312.02 490.50 313.63 C 485.62 322.69 478.03 329.84 472.25 338.29 C 466.27 345.44 461.74 353.64 455.81 360.82 C 452.85 364.84 449.50 368.54 446.33 372.38 C 441.22 379.50 435.88 386.47 430.08 393.04 C 427.43 396.09 423.69 398.07 421.54 401.56 C 418.73 405.67 415.25 409.27 411.40 412.40 C 404.70 419.04 397.34 425.15 391.84 432.88 C 387.60 437.98 381.93 441.60 377.49 446.50 C 371.62 451.65 365.60 456.65 359.53 461.56 C 352.17 467.10 345.79 473.80 338.77 479.75 C 325.65 490.18 311.97 499.93 297.70 508.75 C 289.79 513.31 282.68 519.07 275.01 523.99 C 271.66 526.19 268.26 528.84 264.18 529.37 C 261.66 528.86 259.04 526.77 259.51 523.93 C 259.92 517.56 257.54 511.51 257.33 505.19 C 256.88 501.38 256.19 497.60 255.70 493.80 C 255.53 489.81 255.80 485.79 255.21 481.84 C 254.68 479.22 253.80 476.67 253.59 474.00 C 253.54 463.59 250.56 453.45 250.28 443.06 C 250.81 436.94 248.80 431.02 248.53 424.94 C 248.44 419.89 246.48 415.10 246.31 410.05 C 246.36 404.34 245.55 398.65 246.25 392.95 C 245.87 383.72 244.11 374.61 243.02 365.45 C 241.72 358.74 239.46 351.91 240.87 345.02 C 242.02 340.94 243.70 336.81 246.86 333.87 C 251.38 330.61 257.07 329.81 262.05 327.54 C 266.31 325.02 270.64 322.56 274.60 319.58 C 277.87 317.07 281.77 315.54 285.03 313.01 C 291.32 308.36 298.28 304.60 303.97 299.16 C 313.26 291.75 323.09 284.94 331.53 276.52 C 338.73 270.45 346.30 264.70 352.44 257.49 C 355.74 253.39 359.22 249.35 363.31 246.03 Z" />
<path fill="#fdfdfd" d=" M 171.01 291.98 C 173.25 290.33 176.25 291.25 178.41 292.56 C 184.04 298.30 188.17 305.51 194.75 310.33 C 199.41 313.92 203.31 318.35 207.45 322.51 C 212.63 326.28 216.57 331.57 222.34 334.56 C 226.14 336.30 229.04 339.91 229.57 344.09 C 229.10 355.07 230.42 366.06 229.84 377.05 C 229.61 381.40 231.23 385.63 230.70 389.98 C 229.79 399.05 231.68 408.04 232.53 417.03 C 232.64 422.41 233.81 427.68 233.99 433.05 C 234.38 439.14 237.18 444.83 236.93 450.99 C 236.75 456.81 239.28 462.26 239.42 468.05 C 239.31 472.98 241.72 477.42 242.86 482.11 C 243.83 485.57 242.90 489.32 244.23 492.71 C 245.50 496.33 246.48 500.08 246.61 503.93 C 247.23 511.55 250.03 519.41 247.67 526.98 C 240.95 526.23 235.92 521.05 230.47 517.53 C 225.21 513.09 219.28 509.48 214.47 504.54 C 205.34 495.94 195.97 487.59 186.04 479.94 C 183.00 476.89 179.58 474.34 176.03 471.94 C 170.96 466.99 165.05 463.02 159.93 458.11 C 156.75 454.88 153.05 452.27 149.51 449.47 C 146.33 446.32 143.43 442.88 140.04 439.96 C 133.93 435.08 129.30 428.67 123.54 423.43 C 120.04 420.59 117.51 416.80 114.32 413.65 C 111.48 410.50 107.88 408.14 105.14 404.90 C 101.90 401.16 98.45 397.59 94.68 394.39 C 88.76 388.96 83.88 382.50 77.98 377.06 C 74.78 374.45 76.33 369.42 79.11 367.09 C 83.61 363.91 88.12 360.72 92.85 357.89 C 97.01 355.41 100.54 351.97 104.93 349.86 C 109.53 347.35 113.81 344.23 117.43 340.43 C 123.05 334.60 130.06 330.41 136.00 324.95 C 143.80 317.72 152.33 311.35 160.18 304.19 C 164.26 300.54 166.64 295.34 171.01 291.98 Z" />
<path fill="#fdfdfd" d=" M 128.50 450.35 C 131.08 449.47 133.94 451.43 136.03 452.94 C 139.80 456.23 143.72 459.73 145.89 464.33 C 147.42 470.40 139.79 475.53 134.39 473.65 C 129.68 471.28 125.55 467.46 123.34 462.63 C 121.76 457.93 124.80 453.07 128.50 450.35 Z" />
</svg>
